<svg height="512pt" viewBox="-60 0 512 512" width="512pt" xmlns="http://www.w3.org/2000/svg"><path d="m385.316406 196.464844c0 104.300781-84.550781 188.851562-188.851562 188.851562-104.300782 0-188.851563-84.550781-188.851563-188.851562 0-104.300782 84.550781-188.851563 188.851563-188.851563 104.300781 0 188.851562 84.550781 188.851562 188.851563zm0 0" fill="#48ffe0"/><g fill="#00bf9a"><path d="m196.464844 392.929688c-108.332032 0-196.464844-88.132813-196.464844-196.464844 0-108.332032 88.132812-196.464844 196.464844-196.464844 108.332031 0 196.464844 88.132812 196.464844 196.464844 0 108.332031-88.132813 196.464844-196.464844 196.464844zm0-377.707032c-99.9375 0-181.242188 81.304688-181.242188 181.242188s81.304688 181.238281 181.242188 181.238281 181.238281-81.304687 181.238281-181.238281c0-99.9375-81.300781-181.242188-181.238281-181.242188zm0 0"/><path d="m196.464844 99.597656c-4.203125 0-7.613282-3.410156-7.613282-7.613281v-81.210937c0-4.203126 3.410157-7.609376 7.613282-7.609376s7.609375 3.40625 7.609375 7.609376v81.210937c0 4.203125-3.40625 7.613281-7.609375 7.613281zm0 0"/><path d="m196.464844 392.929688c-27.972656 0-53.824219-21.152344-72.796875-59.554688-18.132813-36.699219-28.113281-85.320312-28.113281-136.910156 0-51.59375 9.980468-100.214844 28.113281-136.910156 18.972656-38.40625 44.824219-59.554688 72.796875-59.554688 27.96875 0 53.824218 21.148438 72.796875 59.554688 18.128906 36.695312 28.113281 85.316406 28.113281 136.910156 0 51.589844-9.984375 100.210937-28.113281 136.910156-18.972657 38.402344-44.828125 59.554688-72.796875 59.554688zm0-377.707032c-21.871094 0-42.878906 18.136719-59.148438 51.074219-17.117187 34.640625-26.539062 80.867187-26.539062 130.167969 0 49.296875 9.421875 95.523437 26.539062 130.164062 16.269532 32.9375 37.277344 51.074219 59.148438 51.074219s42.875-18.136719 59.148437-51.074219c17.113281-34.640625 26.539063-80.867187 26.539063-130.164062 0-49.300782-9.425782-95.527344-26.539063-130.167969-16.273437-32.9375-37.277343-51.074219-59.148437-51.074219zm0 0"/><path d="m196.464844 113.324219c-57.550782 0-111.746094-8.953125-148.691406-24.570313-3.871094-1.636718-5.683594-6.105468-4.046876-9.976562 1.636719-3.871094 6.105469-5.683594 9.972657-4.046875 35.140625 14.855469 87.175781 23.371093 142.765625 23.371093 56.132812 0 108.488281-8.652343 143.640625-23.746093 3.867187-1.660157 8.339843.128906 10 3.992187 1.65625 3.863282-.128907 8.339844-3.992188 9.996094-36.980469 15.878906-91.523437 24.980469-149.648437 24.980469zm0 0"/><path d="m49.980469 319.121094c-2.953125 0-5.765625-1.726563-7-4.613282-1.65625-3.867187.136719-8.339843 4-9.996093 36.972656-15.832031 91.457031-24.910157 149.484375-24.910157 57.546875 0 111.742187 8.957032 148.691406 24.574219 3.871094 1.636719 5.683594 6.101563 4.046875 9.972657-1.636719 3.875-6.105469 5.6875-9.972656 4.050781-35.140625-14.855469-87.175781-23.375-142.765625-23.375-56.039063 0-108.339844 8.632812-143.492188 23.683593-.976562.417969-1.992187.613282-2.992187.613282zm0 0"/><path d="m381.414062 204.074219h-369.898437c-4.207031 0-7.613281-3.40625-7.613281-7.609375s3.40625-7.613282 7.613281-7.613282h369.898437c4.203126 0 7.613282 3.410157 7.613282 7.613282s-3.410156 7.609375-7.613282 7.609375zm0 0"/></g><path d="m235.265625 206.210938c0-24.792969 14.195313-44.890626 31.707031-44.890626 17.507813 0 31.703125 20.097657 31.703125 44.890626v244.378906h-63.410156zm0 0" fill="#fd9e28"/><path d="m296.707031 356.066406h-54.511719c-4.203124 0-7.609374-3.410156-7.609374-7.613281s3.40625-7.609375 7.609374-7.609375h54.511719c4.203125 0 7.609375 3.40625 7.609375 7.609375 0 4.207031-3.40625 7.613281-7.609375 7.613281zm0 0" fill="#fd8724"/><path d="m296.707031 334.167969h-54.511719c-4.203124 0-7.609374-3.40625-7.609374-7.613281 0-4.203126 3.40625-7.609376 7.609374-7.609376h54.511719c4.203125 0 7.609375 3.40625 7.609375 7.609376 0 4.207031-3.40625 7.613281-7.609375 7.613281zm0 0" fill="#fd8724"/><path d="m296.707031 306.113281h-54.511719c-4.203124 0-7.609374-3.410156-7.609374-7.613281s3.40625-7.609375 7.609374-7.609375h54.511719c4.203125 0 7.609375 3.40625 7.609375 7.609375s-3.40625 7.613281-7.609375 7.613281zm0 0" fill="#fd8724"/><path d="m298.675781 206.207031v244.386719h-17.113281v-244.386719c0-20.589843-9.792969-37.945312-23.144531-43.230469 2.722656-1.074218 5.589843-1.652343 8.550781-1.652343 17.515625 0 31.707031 20.097656 31.707031 44.882812zm0 0" fill="#fd8724"/><path d="m94.253906 206.210938c0-24.792969 14.191406-44.890626 31.703125-44.890626 17.507813 0 31.703125 20.097657 31.703125 44.890626v244.378906h-63.410156v-244.378906zm0 0" fill="#fd9e28"/><path d="m150.734375 356.066406h-54.511719c-4.203125 0-7.609375-3.410156-7.609375-7.613281s3.40625-7.609375 7.609375-7.609375h54.511719c4.203125 0 7.609375 3.40625 7.609375 7.609375 0 4.207031-3.40625 7.613281-7.609375 7.613281zm0 0" fill="#fd8724"/><path d="m150.734375 334.167969h-54.511719c-4.203125 0-7.609375-3.40625-7.609375-7.613281 0-4.203126 3.40625-7.609376 7.609375-7.609376h54.511719c4.203125 0 7.609375 3.40625 7.609375 7.609376 0 4.207031-3.40625 7.613281-7.609375 7.613281zm0 0" fill="#fd8724"/><path d="m150.734375 306.113281h-54.511719c-4.203125 0-7.609375-3.410156-7.609375-7.613281s3.40625-7.609375 7.609375-7.609375h54.511719c4.203125 0 7.609375 3.40625 7.609375 7.609375s-3.40625 7.613281-7.609375 7.613281zm0 0" fill="#fd8724"/><path d="m157.664062 206.207031v244.386719h-19.160156v-244.386719c0-20.0625-9.300781-37.050781-22.132812-42.785156 3.019531-1.371094 6.242187-2.097656 9.585937-2.097656 17.515625 0 31.707031 20.097656 31.707031 44.882812zm0 0" fill="#fd8724"/><path d="m310.203125 470.40625h-86.90625v-91.695312l90.222656 30.816406c4.15625 1.417968 6.949219 5.324218 6.949219 9.714844v40.902343c0 5.667969-4.597656 10.261719-10.265625 10.261719zm0 0" fill="#618baa"/><path d="m320.46875 419.234375v40.910156c0 5.664063-4.597656 10.261719-10.269531 10.261719h-12.746094c4.851563 0 8.78125-3.933594 8.78125-8.785156v-51.261719c0-1.265625-.273437-2.488281-.769531-3.585937l8.054687 2.75c4.15625 1.425781 6.949219 5.324218 6.949219 9.710937zm0 0" fill="#4e7693"/><path d="m82.726562 470.40625h86.902344v-91.695312l-90.222656 30.816406c-4.152344 1.417968-6.945312 5.324218-6.945312 9.714844v40.902343c0 5.667969 4.59375 10.261719 10.265624 10.261719zm0 0" fill="#618baa"/><path d="m152.980469 153.128906c0-33.769531 19.335937-61.144531 43.183593-61.144531 23.851563 0 43.183594 27.375 43.183594 61.144531v322.597656c0 5.667969-4.59375 10.261719-10.261718 10.261719h-65.839844c-5.667969 0-10.261719-4.59375-10.261719-10.261719v-322.597656zm0 0" fill="#e3f4ff"/><path d="m239.347656 153.132812v322.597657c0 5.660156-4.597656 10.257812-10.261718 10.257812h-15.878907c5.664063 0 10.261719-4.597656 10.261719-10.257812v-322.597657c0-29.9375-15.183594-54.839843-35.238281-60.101562 2.574219-.683594 5.230469-1.042969 7.9375-1.042969 23.851562 0 43.179687 27.371094 43.179687 61.144531zm0 0" fill="#bddff4"/><path d="m197.941406 512h-2.957031c-5.601563 0-10.148437-4.542969-10.148437-10.148438v-84.140624c0-6.421876 5.207031-11.625 11.628906-11.625 6.417968 0 11.625 5.203124 11.625 11.625v84.140624c0 5.605469-4.542969 10.148438-10.148438 10.148438zm0 0" fill="#618baa"/><path d="m196.164062 334.695312c-4.203124 0-7.609374-3.40625-7.609374-7.609374v-68.617188c0-4.203125 3.40625-7.613281 7.609374-7.613281 4.203126 0 7.609376 3.410156 7.609376 7.613281v68.617188c0 4.203124-3.40625 7.609374-7.609376 7.609374zm0 0" fill="#fd9e28"/><path d="m214.425781 187.65625c-4.203125 0-7.613281-3.410156-7.613281-7.613281 0-5.707031-4.640625-10.351563-10.347656-10.351563-5.710938 0-10.351563 4.644532-10.351563 10.351563 0 4.203125-3.410156 7.613281-7.613281 7.613281s-7.609375-3.410156-7.609375-7.613281c0-14.101563 11.472656-25.574219 25.574219-25.574219 14.101562 0 25.574218 11.472656 25.574218 25.574219 0 4.203125-3.40625 7.613281-7.613281 7.613281zm0 0" fill="#618baa"/><path d="m261.714844 478.019531c-4.203125 0-7.609375-3.410156-7.609375-7.613281v-14.519531c0-4.203125 3.40625-7.609375 7.609375-7.609375 4.207031 0 7.613281 3.40625 7.613281 7.609375v14.519531c0 4.203125-3.40625 7.613281-7.613281 7.613281zm0 0" fill="#4e7693"/><path d="m282.585938 478.019531c-4.203126 0-7.609376-3.410156-7.609376-7.613281v-14.519531c0-4.203125 3.40625-7.609375 7.609376-7.609375 4.207031 0 7.613281 3.40625 7.613281 7.609375v14.519531c0 4.203125-3.410157 7.613281-7.613281 7.613281zm0 0" fill="#4e7693"/><path d="m110.339844 478.019531c-4.203125 0-7.609375-3.410156-7.609375-7.613281v-14.519531c0-4.203125 3.40625-7.609375 7.609375-7.609375 4.207031 0 7.613281 3.40625 7.613281 7.609375v14.519531c0 4.203125-3.40625 7.613281-7.613281 7.613281zm0 0" fill="#4e7693"/><path d="m131.210938 478.019531c-4.203126 0-7.609376-3.410156-7.609376-7.613281v-14.519531c0-4.203125 3.40625-7.609375 7.609376-7.609375 4.203124 0 7.613281 3.40625 7.613281 7.609375v14.519531c0 4.203125-3.410157 7.613281-7.613281 7.613281zm0 0" fill="#4e7693"/><path d="m66.835938 260.667969h-20.261719c-4.207031 0-7.613281-3.40625-7.613281-7.613281 0-4.203126 3.40625-7.609376 7.613281-7.609376h20.261719c4.203124 0 7.609374 3.40625 7.609374 7.609376 0 4.207031-3.40625 7.613281-7.609374 7.613281zm0 0" fill="#9cc6db"/><path d="m66.835938 282.445312h-7.070313c-4.203125 0-7.609375-3.40625-7.609375-7.613281 0-4.203125 3.40625-7.609375 7.609375-7.609375h7.070313c4.203124 0 7.609374 3.40625 7.609374 7.609375s-3.40625 7.613281-7.609374 7.613281zm0 0" fill="#9cc6db"/><path d="m66.835938 233.648438c-4.207032 0-7.613282-3.40625-7.613282-7.609376v-.101562c0-4.207031 3.40625-7.613281 7.613282-7.613281 4.203124 0 7.609374 3.40625 7.609374 7.613281v.101562c0 4.203126-3.40625 7.609376-7.609374 7.609376zm0 0" fill="#fd9e28"/><path d="m346.355469 260.667969h-20.261719c-4.203125 0-7.613281-3.40625-7.613281-7.613281 0-4.203126 3.410156-7.609376 7.613281-7.609376h20.261719c4.203125 0 7.609375 3.40625 7.609375 7.609376 0 4.207031-3.40625 7.613281-7.609375 7.613281zm0 0" fill="#9cc6db"/><path d="m333.160156 282.445312h-7.066406c-4.203125 0-7.609375-3.40625-7.609375-7.613281 0-4.203125 3.40625-7.609375 7.609375-7.609375h7.066406c4.207032 0 7.613282 3.40625 7.613282 7.609375s-3.40625 7.613281-7.613282 7.613281zm0 0" fill="#9cc6db"/><path d="m326.09375 233.648438c-4.203125 0-7.613281-3.40625-7.613281-7.609376v-.101562c0-4.207031 3.410156-7.613281 7.613281-7.613281 4.207031 0 7.609375 3.40625 7.609375 7.613281v.101562c.003906 4.203126-3.402344 7.609376-7.609375 7.609376zm0 0" fill="#fd9e28"/></svg>